. 
  
http://www.torrentday.com/        :     The Hottest Private Tracker On The Net!!!


To Avoid Fakes, ALWAYS Check That The Torrent Was Added By: TvTeam.


               www . TorrentDay . Com 
(((((((((((((= Enjoy No RAR releases =))))))))))))))))))))

...................................NFO:....................................

.                           _        _______          
                          ( (    /|(  ____ )|\     /|
                          |  \  ( || (    )|| )   ( |
                          |   \ | || (____)|| | _ | |
                          | (\ \) ||  _____)| |( )| |
                          | | \   || (      | || || |
                          | )  \  || )      | () () |
                          |/    )_)|/       (_______)

                           _________ ______            ______  
         |\     /||\     /|\__   __/(  __  \ |\     /|(  __  \ 
         ( \   / )| )   ( |   ) (   | (  \  )| )   ( || (  \  )
          \ (_) / | |   | |   | |   | |   ) || (___) || |   ) |
           ) _ (  ( (   ) )   | |   | |   | ||  ___  || |   | |
          / ( ) \  \ \_/ /    | |   | |   ) || (   ) || |   ) |
         ( /   \ )  \   /  ___) (___| (__/  )| )   ( || (__/  )                  
         |/     \|   \_/   \_______/(______/ |/     \|(______/                                                      
                       ______   _______  _______  _______ 
                      / ___  \ / ___   )(  __   )(  ____ )
                      \/   )  )\/   )  || (  )  || (    )|
                          /  /     /   )| | /   || (____)|
                         /  /    _/   / | (/ /) ||  _____)
                        /  /    /   _/  |   / | || (      
                       /  /    (   (__/\|  (__) || )      
                       \_/     \_______/(_______)|/       
                       
           
-==Our releases are in HD resolution and 5.1 sound whenever possible from the source. They work on computers, Xbox 360, PS3, WDHD TV, media servers, some blu ray players and some upscaling dvd players.==-

Source: Swarm.Natures.Incredible.Invasions.2009.Part.1.720p.BluRay.x264-KaKa

General
Complete name                    : Part 1.mp4
Format                           : MPEG-4
Format profile                   : Base Media
Codec ID                         : isom
File size                        : 1.16 GiB
Duration                         : 52mn 14s
Overall bit rate                 : 3 171 Kbps
Movie name                       : kaka-sniipart1-720p.mp4
Writing application              : Lavf52.78.3

Video
ID                               : 1
Format                           : AVC
Format/Info                      : Advanced Video Codec
Format profile                   : High@L3.1
Format settings, CABAC           : Yes
Format settings, ReFrames        : 4 frames
Codec ID                         : avc1
Codec ID/Info                    : Advanced Video Coding
Duration                         : 52mn 14s
Bit rate mode                    : Variable
Bit rate                         : 3 000 Kbps
Width                            : 1 280 pixels
Height                           : 720 pixels
Display aspect ratio             : 16:9
Frame rate mode                  : Constant
Frame rate                       : 25.000 fps
Resolution                       : 24 bits
Colorimetry                      : 4:2:0
Scan type                        : Progressive
Bits/(Pixel*Frame)               : 0.130
Stream size                      : 1.09 GiB (95%)
Writing library                  : x264 core 106 r1732 b20059a

Audio
ID                               : 2
Format                           : AAC
Format/Info                      : Advanced Audio Codec
Format version                   : Version 4
Format profile                   : LC
Format settings, SBR             : No
Codec ID                         : 40
Duration                         : 52mn 14s
Bit rate mode                    : Variable
Bit rate                         : 165 Kbps
Channel(s)                       : 2 channels
Channel positions                : L R
Sampling rate                    : 48.0 KHz
Resolution                       : 16 bits
Stream size                      : 61.8 MiB (5%)

Source: Swarm.Natures.Incredible.Invasions.2009.Part.2.720p.BluRay.x264-KaKa

General
Complete name                    : Part 2.mp4
Format                           : MPEG-4
Format profile                   : Base Media
Codec ID                         : isom
File size                        : 1.16 GiB
Duration                         : 52mn 14s
Overall bit rate                 : 3 171 Kbps
Movie name                       : kaka-sniip2-720p.mp4
Writing application              : Lavf52.78.3

Video
ID                               : 1
Format                           : AVC
Format/Info                      : Advanced Video Codec
Format profile                   : High@L3.1
Format settings, CABAC           : Yes
Format settings, ReFrames        : 4 frames
Codec ID                         : avc1
Codec ID/Info                    : Advanced Video Coding
Duration                         : 52mn 14s
Bit rate mode                    : Variable
Bit rate                         : 3 000 Kbps
Width                            : 1 280 pixels
Height                           : 720 pixels
Display aspect ratio             : 16:9
Frame rate mode                  : Constant
Frame rate                       : 25.000 fps
Resolution                       : 24 bits
Colorimetry                      : 4:2:0
Scan type                        : Progressive
Bits/(Pixel*Frame)               : 0.130
Stream size                      : 1.09 GiB (95%)
Writing library                  : x264 core 106 r1732 b20059a

Audio
ID                               : 2
Format                           : AAC
Format/Info                      : Advanced Audio Codec
Format version                   : Version 4
Format profile                   : LC
Format settings, SBR             : No
Codec ID                         : 40
Duration                         : 52mn 14s
Bit rate mode                    : Variable
Bit rate                         : 165 Kbps
Channel(s)                       : 2 channels
Channel positions                : L R
Sampling rate                    : 48.0 KHz
Resolution                       : 16 bits
Stream size                      : 61.8 MiB (5%) 
http://www.imdb.com/title/tt1352274/